<svg width="170" height="36" viewBox="0 0 170 36" fill="none" xmlns="http://www.w3.org/2000/svg">
<rect width="170" height="36" rx="4" fill="#D8C3A4"/>
<path d="M43.526 21V11.2H51.968V21H50.596V12.054L50.932 12.418H44.562L44.912 12.054V21H43.526ZM57.978 21.084C57.2314 21.084 56.5687 20.9207 55.99 20.594C55.4114 20.2673 54.954 19.8193 54.618 19.25C54.282 18.6713 54.114 18.018 54.114 17.29C54.114 16.5527 54.282 15.8993 54.618 15.33C54.954 14.7607 55.4114 14.3173 55.99 14C56.5687 13.6733 57.2314 13.51 57.978 13.51C58.7154 13.51 59.3734 13.6733 59.952 14C60.54 14.3173 60.9974 14.7607 61.324 15.33C61.66 15.89 61.828 16.5433 61.828 17.29C61.828 18.0273 61.66 18.6807 61.324 19.25C60.9974 19.8193 60.54 20.2673 59.952 20.594C59.3734 20.9207 58.7154 21.084 57.978 21.084ZM57.978 19.908C58.454 19.908 58.8787 19.8007 59.252 19.586C59.6347 19.3713 59.9334 19.068 60.148 18.676C60.3627 18.2747 60.47 17.8127 60.47 17.29C60.47 16.758 60.3627 16.3007 60.148 15.918C59.9334 15.526 59.6347 15.2227 59.252 15.008C58.8787 14.7933 58.454 14.686 57.978 14.686C57.502 14.686 57.0774 14.7933 56.704 15.008C56.3307 15.2227 56.032 15.526 55.808 15.918C55.584 16.3007 55.472 16.758 55.472 17.29C55.472 17.8127 55.584 18.2747 55.808 18.676C56.032 19.068 56.3307 19.3713 56.704 19.586C57.0774 19.8007 57.502 19.908 57.978 19.908ZM68.7821 20.37V14.756H65.5621L65.4921 16.184C65.4734 16.6507 65.4408 17.1033 65.3941 17.542C65.3568 17.9713 65.2914 18.368 65.1981 18.732C65.1141 19.096 64.9881 19.3947 64.8201 19.628C64.6521 19.8613 64.4281 20.006 64.1481 20.062L62.8181 19.824C63.1074 19.8333 63.3408 19.74 63.5181 19.544C63.6954 19.3387 63.8308 19.0587 63.9241 18.704C64.0268 18.3493 64.1014 17.948 64.1481 17.5C64.1948 17.0427 64.2321 16.5713 64.2601 16.086L64.3721 13.58H70.1261V20.37H68.7821ZM62.5241 22.722V19.824H71.2601V22.722H70.0001V21H63.7981V22.722H62.5241ZM76.945 21.084C76.329 21.084 75.7643 20.944 75.251 20.664C74.747 20.3747 74.341 19.95 74.033 19.39C73.7343 18.83 73.585 18.13 73.585 17.29C73.585 16.45 73.7297 15.75 74.019 15.19C74.3177 14.63 74.719 14.21 75.223 13.93C75.7363 13.65 76.3103 13.51 76.945 13.51C77.673 13.51 78.317 13.6687 78.877 13.986C79.437 14.3033 79.8803 14.7467 80.207 15.316C80.5337 15.876 80.697 16.534 80.697 17.29C80.697 18.046 80.5337 18.7087 80.207 19.278C79.8803 19.8473 79.437 20.2907 78.877 20.608C78.317 20.9253 77.673 21.084 76.945 21.084ZM73.011 23.716V13.58H74.299V15.582L74.215 17.304L74.355 19.026V23.716H73.011ZM76.833 19.908C77.309 19.908 77.7337 19.8007 78.107 19.586C78.4897 19.3713 78.7883 19.068 79.003 18.676C79.227 18.2747 79.339 17.8127 79.339 17.29C79.339 16.758 79.227 16.3007 79.003 15.918C78.7883 15.526 78.4897 15.2227 78.107 15.008C77.7337 14.7933 77.309 14.686 76.833 14.686C76.3663 14.686 75.9417 14.7933 75.559 15.008C75.1857 15.2227 74.887 15.526 74.663 15.918C74.4483 16.3007 74.341 16.758 74.341 17.29C74.341 17.8127 74.4483 18.2747 74.663 18.676C74.887 19.068 75.1857 19.3713 75.559 19.586C75.9417 19.8007 76.3663 19.908 76.833 19.908ZM85.8277 21.084C85.081 21.084 84.4183 20.9207 83.8397 20.594C83.261 20.2673 82.8037 19.8193 82.4677 19.25C82.1317 18.6713 81.9637 18.018 81.9637 17.29C81.9637 16.5527 82.1317 15.8993 82.4677 15.33C82.8037 14.7607 83.261 14.3173 83.8397 14C84.4183 13.6733 85.081 13.51 85.8277 13.51C86.565 13.51 87.223 13.6733 87.8017 14C88.3897 14.3173 88.847 14.7607 89.1737 15.33C89.5097 15.89 89.6777 16.5433 89.6777 17.29C89.6777 18.0273 89.5097 18.6807 89.1737 19.25C88.847 19.8193 88.3897 20.2673 87.8017 20.594C87.223 20.9207 86.565 21.084 85.8277 21.084ZM85.8277 19.908C86.3037 19.908 86.7283 19.8007 87.1017 19.586C87.4843 19.3713 87.783 19.068 87.9977 18.676C88.2123 18.2747 88.3197 17.8127 88.3197 17.29C88.3197 16.758 88.2123 16.3007 87.9977 15.918C87.783 15.526 87.4843 15.2227 87.1017 15.008C86.7283 14.7933 86.3037 14.686 85.8277 14.686C85.3517 14.686 84.927 14.7933 84.5537 15.008C84.1803 15.2227 83.8817 15.526 83.6577 15.918C83.4337 16.3007 83.3217 16.758 83.3217 17.29C83.3217 17.8127 83.4337 18.2747 83.6577 18.676C83.8817 19.068 84.1803 19.3713 84.5537 19.586C84.927 19.8007 85.3517 19.908 85.8277 19.908ZM95.0484 21.112C94.4324 21.112 93.8864 21.014 93.4104 20.818C92.9437 20.622 92.5424 20.3327 92.2064 19.95C91.8704 19.558 91.6137 19.068 91.4364 18.48C91.2684 17.8827 91.1844 17.1827 91.1844 16.38C91.1844 15.7453 91.2404 15.176 91.3524 14.672C91.4644 14.168 91.6231 13.72 91.8284 13.328C92.0431 12.936 92.3044 12.5953 92.6124 12.306C92.9297 12.0167 93.2844 11.7787 93.6764 11.592C94.0777 11.396 94.5164 11.2467 94.9924 11.144L98.3804 10.388L98.5764 11.634L95.4544 12.306C95.2677 12.3433 95.0437 12.3993 94.7824 12.474C94.5211 12.5487 94.2551 12.6653 93.9844 12.824C93.7137 12.9733 93.4617 13.1833 93.2284 13.454C92.9951 13.7247 92.8084 14.0793 92.6684 14.518C92.5284 14.9473 92.4584 15.4793 92.4584 16.114C92.4584 16.2913 92.4631 16.4267 92.4724 16.52C92.4817 16.6133 92.4911 16.7067 92.5004 16.8C92.5191 16.8933 92.5331 17.0333 92.5424 17.22L91.9824 16.646C92.1317 16.1327 92.3697 15.6847 92.6964 15.302C93.0231 14.9193 93.4151 14.6253 93.8724 14.42C94.3391 14.2053 94.8477 14.098 95.3984 14.098C96.0891 14.098 96.7004 14.2473 97.2324 14.546C97.7737 14.8447 98.1984 15.2553 98.5064 15.778C98.8144 16.3007 98.9684 16.898 98.9684 17.57C98.9684 18.2513 98.8051 18.8627 98.4784 19.404C98.1611 19.936 97.7084 20.356 97.1204 20.664C96.5324 20.9627 95.8417 21.112 95.0484 21.112ZM95.1744 19.992C95.6504 19.992 96.0704 19.8893 96.4344 19.684C96.7984 19.4693 97.0831 19.1847 97.2884 18.83C97.4937 18.466 97.5964 18.06 97.5964 17.612C97.5964 17.164 97.4937 16.7673 97.2884 16.422C97.0831 16.0767 96.7984 15.806 96.4344 15.61C96.0704 15.4047 95.6411 15.302 95.1464 15.302C94.6797 15.302 94.2597 15.4 93.8864 15.596C93.5131 15.7827 93.2237 16.0487 93.0184 16.394C92.8131 16.73 92.7104 17.122 92.7104 17.57C92.7104 18.018 92.8131 18.4287 93.0184 18.802C93.2331 19.166 93.5224 19.4553 93.8864 19.67C94.2597 19.8847 94.6891 19.992 95.1744 19.992ZM100.888 21V13.58H102.232V16.73H106.46V13.58H107.804V21H106.46V17.892H102.232V21H100.888ZM113.721 21.084C112.928 21.084 112.228 20.9207 111.621 20.594C111.024 20.2673 110.557 19.8193 110.221 19.25C109.895 18.6807 109.731 18.0273 109.731 17.29C109.731 16.5527 109.89 15.8993 110.207 15.33C110.534 14.7607 110.977 14.3173 111.537 14C112.107 13.6733 112.746 13.51 113.455 13.51C114.174 13.51 114.809 13.6687 115.359 13.986C115.91 14.3033 116.339 14.7513 116.647 15.33C116.965 15.8993 117.123 16.5667 117.123 17.332C117.123 17.388 117.119 17.4533 117.109 17.528C117.109 17.6027 117.105 17.6727 117.095 17.738H110.781V16.772H116.395L115.849 17.108C115.859 16.632 115.761 16.2073 115.555 15.834C115.35 15.4607 115.065 15.1713 114.701 14.966C114.347 14.7513 113.931 14.644 113.455 14.644C112.989 14.644 112.573 14.7513 112.209 14.966C111.845 15.1713 111.561 15.4653 111.355 15.848C111.15 16.2213 111.047 16.6507 111.047 17.136V17.36C111.047 17.8547 111.159 18.298 111.383 18.69C111.617 19.0727 111.939 19.3713 112.349 19.586C112.76 19.8007 113.231 19.908 113.763 19.908C114.202 19.908 114.599 19.8333 114.953 19.684C115.317 19.5347 115.635 19.3107 115.905 19.012L116.647 19.88C116.311 20.272 115.891 20.5707 115.387 20.776C114.893 20.9813 114.337 21.084 113.721 21.084ZM122.512 21.084C121.719 21.084 121.019 20.9207 120.412 20.594C119.815 20.2673 119.348 19.8193 119.012 19.25C118.686 18.6807 118.522 18.0273 118.522 17.29C118.522 16.5527 118.681 15.8993 118.998 15.33C119.325 14.7607 119.768 14.3173 120.328 14C120.898 13.6733 121.537 13.51 122.246 13.51C122.965 13.51 123.6 13.6687 124.15 13.986C124.701 14.3033 125.13 14.7513 125.438 15.33C125.756 15.8993 125.914 16.5667 125.914 17.332C125.914 17.388 125.91 17.4533 125.9 17.528C125.9 17.6027 125.896 17.6727 125.886 17.738H119.572V16.772H125.186L124.64 17.108C124.65 16.632 124.552 16.2073 124.346 15.834C124.141 15.4607 123.856 15.1713 123.492 14.966C123.138 14.7513 122.722 14.644 122.246 14.644C121.78 14.644 121.364 14.7513 121 14.966C120.636 15.1713 120.352 15.4653 120.146 15.848C119.941 16.2213 119.838 16.6507 119.838 17.136V17.36C119.838 17.8547 119.95 18.298 120.174 18.69C120.408 19.0727 120.73 19.3713 121.14 19.586C121.551 19.8007 122.022 19.908 122.554 19.908C122.993 19.908 123.39 19.8333 123.744 19.684C124.108 19.5347 124.426 19.3107 124.696 19.012L125.438 19.88C125.102 20.272 124.682 20.5707 124.178 20.776C123.684 20.9813 123.128 21.084 122.512 21.084Z" fill="white"/>
</svg>
