<svg width="290" height="76" viewBox="0 0 290 76" fill="none" xmlns="http://www.w3.org/2000/svg">
<path d="M23.1319 70.2839C29.299 73.8251 36.8826 73.8251 43.0497 70.2839L56.1406 62.7673C62.3517 59.2008 66.1816 52.5854 66.1816 45.4231V30.5792C66.1816 23.4169 62.3517 16.8014 56.1406 13.235L43.0498 5.71832C36.8826 2.1772 29.299 2.17719 23.1319 5.71832L10.0411 13.235C3.82992 16.8014 0 23.4169 0 30.5792V45.4231C0 52.5854 3.82991 59.2008 10.0411 62.7673L23.1319 70.2839Z" fill="#E98074"/>
<path d="M29.5202 64.0063C31.6757 65.2412 34.3243 65.2412 36.4798 64.0063L53.4798 54.2667C55.657 53.0193 57 50.7021 57 48.1929V28.8069C57 26.2977 55.657 23.9804 53.4798 22.7331L36.4798 12.9935C34.3243 11.7586 31.6757 11.7586 29.5202 12.9935L12.5202 22.7331C10.343 23.9804 9 26.2977 9 28.8069V48.1929C9 50.7021 10.343 53.0193 12.5202 54.2667L29.5202 64.0063Z" fill="white"/>
<path fill-rule="evenodd" clip-rule="evenodd" d="M16.0516 28.2206L34.0082 19.9998L34.0087 20.0009L34.0086 19.9998L51.4733 38.5262L44.4815 41.7041L44.4837 41.7086L31.8463 47.4525L16.0689 28.2569L16.0516 28.2206Z" fill="#D8C3A4"/>
<path fill-rule="evenodd" clip-rule="evenodd" d="M14.0013 31.1212C14.0157 31.7682 14.6765 32.8609 14.6765 32.8609L29.4358 51.6726C29.3377 51.2051 29.3915 50.6864 29.5267 50.143C29.7125 49.3956 30.4589 48.3963 30.4589 48.3963L31.2232 47.6088L15.6363 28.3562C15.6363 28.3562 14.9172 28.631 14.5901 28.9792C14.0595 29.544 13.9835 30.3223 14.0013 31.1212Z" fill="#EAE8DC"/>
<path d="M31.9483 47.9573L50.7563 39.3116L50.5475 44.3227L34.0318 52.4255C34.0318 52.4255 32.5156 53.1492 31.5466 52.8834C30.7107 52.6542 30.3828 52.4448 30.0853 51.6306C29.7723 50.7744 30.0316 50.1144 30.5027 49.3339C30.937 48.6144 31.9483 47.9573 31.9483 47.9573Z" fill="#EAE8DC"/>
<path fill-rule="evenodd" clip-rule="evenodd" d="M50.7261 40.0564L33.4978 48.09C33.2475 48.2067 33.1392 48.5042 33.2559 48.7545C33.3727 49.0048 33.6701 49.113 33.9204 48.9963L50.7105 41.167L50.7261 40.0564Z" fill="#505050"/>
<path fill-rule="evenodd" clip-rule="evenodd" d="M50.6351 41.9049L32.7527 50.5773C32.5042 50.6978 32.3944 50.9997 32.5073 51.2517C32.6203 51.5037 32.9133 51.6103 33.1618 51.4898L50.604 43.0309L50.6351 41.9049Z" fill="#505050"/>
<path d="M32.9649 51.1106C32.821 50.9927 33.618 50.643 34.2438 50.3616C34.9652 50.0372 35.9531 49.5311 35.9531 49.5311C35.9531 49.5311 36.4814 50.741 36.5886 51.6872C36.7314 52.9477 36.3757 54.9891 36.3757 54.9891C36.0282 54.0955 35.6972 53.9322 34.8441 53.6162L33.0876 55.7286C33.0876 55.7286 33.6718 53.5017 33.3361 52.4246C33.1119 51.7052 33.1088 51.2286 32.9649 51.1106Z" fill="#E85A50"/>
<path d="M25.0947 28.6544L32.287 25.3006L34.7842 28.2752L27.5636 31.6829L25.0947 28.6544Z" fill="#EAE8DC"/>
<path fill-rule="evenodd" clip-rule="evenodd" d="M16.0516 28.2206L34.0082 19.9998L34.0087 20.0009L34.0086 19.9998L51.4733 38.5262L44.4815 41.7041L44.4837 41.7086L31.8463 47.4525L16.0689 28.2569L16.0516 28.2206Z" fill="#D8C3A4"/>
<path fill-rule="evenodd" clip-rule="evenodd" d="M14.0013 31.1212C14.0157 31.7682 14.6765 32.8609 14.6765 32.8609L29.4358 51.6726C29.3377 51.2051 29.3915 50.6864 29.5267 50.143C29.7125 49.3956 30.4589 48.3963 30.4589 48.3963L31.2232 47.6088L15.6363 28.3562C15.6363 28.3562 14.9172 28.631 14.5901 28.9792C14.0595 29.544 13.9835 30.3223 14.0013 31.1212Z" fill="#EAE8DC"/>
<path d="M31.9483 47.9573L50.7563 39.3116L50.5475 44.3227L34.0318 52.4255C34.0318 52.4255 32.5156 53.1492 31.5466 52.8834C30.7107 52.6542 30.3828 52.4448 30.0853 51.6306C29.7723 50.7744 30.0316 50.1144 30.5027 49.3339C30.937 48.6144 31.9483 47.9573 31.9483 47.9573Z" fill="#EAE8DC"/>
<path fill-rule="evenodd" clip-rule="evenodd" d="M50.7261 40.0564L33.4978 48.09C33.2475 48.2067 33.1392 48.5042 33.2559 48.7545C33.3727 49.0048 33.6701 49.113 33.9204 48.9963L50.7105 41.167L50.7261 40.0564Z" fill="#505050"/>
<path fill-rule="evenodd" clip-rule="evenodd" d="M50.6351 41.9049L32.7527 50.5773C32.5042 50.6978 32.3944 50.9997 32.5073 51.2517C32.6203 51.5037 32.9133 51.6103 33.1618 51.4898L50.604 43.0309L50.6351 41.9049Z" fill="#505050"/>
<path d="M32.9649 51.1106C32.821 50.9927 33.618 50.643 34.2438 50.3616C34.9652 50.0372 35.9531 49.5311 35.9531 49.5311C35.9531 49.5311 36.4814 50.741 36.5886 51.6872C36.7314 52.9477 36.3757 54.9891 36.3757 54.9891C36.0282 54.0955 35.6972 53.9322 34.8441 53.6162L33.0876 55.7286C33.0876 55.7286 33.6718 53.5017 33.3361 52.4246C33.1119 51.7052 33.1088 51.2286 32.9649 51.1106Z" fill="#E85A50"/>
<path d="M25.0947 28.6544L32.287 25.3006L34.7842 28.2752L27.5636 31.6829L25.0947 28.6544Z" fill="#EAE8DC"/>
<path d="M83.784 48V25.6H101.864V29.728H88.936V34.336H95.144C97.8533 34.336 99.912 34.9013 101.32 36.032C102.749 37.1627 103.464 38.8053 103.464 40.96C103.464 43.1787 102.675 44.9067 101.096 46.144C99.5173 47.3813 97.288 48 94.408 48H83.784ZM88.936 44.16H94.12C95.4427 44.16 96.456 43.904 97.16 43.392C97.864 42.8587 98.216 42.0907 98.216 41.088C98.216 39.1253 96.8507 38.144 94.12 38.144H88.936V44.16ZM107.025 48V30.784H111.985V41.024L120.369 30.784H124.945V48H119.985V37.76L111.633 48H107.025ZM138.288 48.384C136.88 48.384 135.6 48.1813 134.448 47.776C133.296 47.3493 132.293 46.6987 131.44 45.824C130.608 44.928 129.957 43.7867 129.488 42.4C129.04 41.0133 128.816 39.36 128.816 37.44C128.816 36.0747 128.933 34.8267 129.168 33.696C129.402 32.5653 129.754 31.5413 130.224 30.624C130.693 29.6853 131.29 28.864 132.016 28.16C132.762 27.4347 133.626 26.8373 134.608 26.368C135.61 25.8773 136.741 25.504 138 25.248L146.192 23.616L146.864 27.904L139.632 29.344C139.205 29.4293 138.714 29.5467 138.16 29.696C137.626 29.824 137.082 30.0267 136.528 30.304C135.994 30.5813 135.493 30.976 135.024 31.488C134.576 31.9787 134.213 32.6293 133.936 33.44C133.658 34.2293 133.52 35.2107 133.52 36.384C133.52 36.7467 133.53 37.024 133.552 37.216C133.594 37.408 133.626 37.6107 133.648 37.824C133.69 38.0373 133.712 38.368 133.712 38.816L132.112 37.248C132.581 36.2453 133.178 35.392 133.904 34.688C134.65 33.984 135.504 33.4507 136.464 33.088C137.445 32.704 138.533 32.512 139.728 32.512C141.349 32.512 142.768 32.8427 143.984 33.504C145.221 34.144 146.181 35.0507 146.864 36.224C147.546 37.3973 147.888 38.7307 147.888 40.224C147.888 41.8453 147.482 43.2747 146.672 44.512C145.861 45.728 144.73 46.6773 143.28 47.36C141.85 48.0427 140.186 48.384 138.288 48.384ZM138.544 44.512C139.376 44.512 140.112 44.3307 140.752 43.968C141.392 43.584 141.882 43.0827 142.224 42.464C142.586 41.824 142.768 41.1093 142.768 40.32C142.768 39.552 142.586 38.8693 142.224 38.272C141.882 37.6747 141.392 37.2053 140.752 36.864C140.112 36.5227 139.365 36.352 138.512 36.352C137.68 36.352 136.933 36.5227 136.272 36.864C135.61 37.184 135.098 37.632 134.736 38.208C134.373 38.784 134.192 39.456 134.192 40.224C134.192 41.0133 134.373 41.7387 134.736 42.4C135.12 43.04 135.632 43.552 136.272 43.936C136.933 44.32 137.69 44.512 138.544 44.512ZM148.849 47.968L149.105 43.872C149.233 43.8933 149.361 43.9147 149.489 43.936C149.617 43.936 149.734 43.936 149.841 43.936C150.438 43.936 150.908 43.7653 151.249 43.424C151.59 43.0827 151.846 42.624 152.017 42.048C152.188 41.4507 152.305 40.7787 152.369 40.032C152.454 39.2853 152.518 38.5067 152.561 37.696L152.817 30.784H167.537V48H162.545V33.664L163.665 34.88H156.113L157.169 33.6L156.945 37.92C156.881 39.456 156.753 40.864 156.561 42.144C156.39 43.424 156.102 44.5333 155.697 45.472C155.292 46.3893 154.748 47.104 154.065 47.616C153.382 48.1067 152.508 48.352 151.441 48.352C151.057 48.352 150.652 48.32 150.225 48.256C149.798 48.192 149.34 48.096 148.849 47.968ZM172.338 48V30.784H177.298V41.024L185.682 30.784H190.258V48H185.298V37.76L176.946 48H172.338ZM203.12 48.256C201.286 48.256 199.654 47.872 198.224 47.104C196.816 46.336 195.696 45.2907 194.864 43.968C194.054 42.624 193.648 41.0987 193.648 39.392C193.648 37.664 194.054 36.1387 194.864 34.816C195.696 33.472 196.816 32.4267 198.224 31.68C199.654 30.912 201.286 30.528 203.12 30.528C204.934 30.528 206.555 30.912 207.984 31.68C209.414 32.4267 210.534 33.4613 211.344 34.784C212.155 36.1067 212.56 37.6427 212.56 39.392C212.56 41.0987 212.155 42.624 211.344 43.968C210.534 45.2907 209.414 46.336 207.984 47.104C206.555 47.872 204.934 48.256 203.12 48.256ZM203.12 44.16C203.952 44.16 204.699 43.968 205.36 43.584C206.022 43.2 206.544 42.656 206.928 41.952C207.312 41.2267 207.504 40.3733 207.504 39.392C207.504 38.3893 207.312 37.536 206.928 36.832C206.544 36.128 206.022 35.584 205.36 35.2C204.699 34.816 203.952 34.624 203.12 34.624C202.288 34.624 201.542 34.816 200.88 35.2C200.219 35.584 199.686 36.128 199.28 36.832C198.896 37.536 198.704 38.3893 198.704 39.392C198.704 40.3733 198.896 41.2267 199.28 41.952C199.686 42.656 200.219 43.2 200.88 43.584C201.542 43.968 202.288 44.16 203.12 44.16ZM219.049 48V33.728L220.169 34.88H213.225V30.784H229.833V34.88H222.889L224.009 33.728V48H219.049ZM240.191 48.256C238.228 48.256 236.5 47.872 235.007 47.104C233.535 46.336 232.394 45.2907 231.583 43.968C230.772 42.624 230.367 41.0987 230.367 39.392C230.367 37.664 230.762 36.1387 231.551 34.816C232.362 33.472 233.46 32.4267 234.847 31.68C236.234 30.912 237.802 30.528 239.551 30.528C241.236 30.528 242.751 30.8907 244.095 31.616C245.46 32.32 246.538 33.344 247.327 34.688C248.116 36.0107 248.511 37.6 248.511 39.456C248.511 39.648 248.5 39.872 248.479 40.128C248.458 40.3627 248.436 40.5867 248.415 40.8H234.431V37.888H245.791L243.871 38.752C243.871 37.856 243.69 37.0773 243.327 36.416C242.964 35.7547 242.463 35.2427 241.823 34.88C241.183 34.496 240.436 34.304 239.583 34.304C238.73 34.304 237.972 34.496 237.311 34.88C236.671 35.2427 236.17 35.7653 235.807 36.448C235.444 37.1093 235.263 37.8987 235.263 38.816V39.584C235.263 40.5227 235.466 41.3547 235.871 42.08C236.298 42.784 236.884 43.328 237.631 43.712C238.399 44.0747 239.295 44.256 240.319 44.256C241.236 44.256 242.036 44.1173 242.719 43.84C243.423 43.5627 244.063 43.1467 244.639 42.592L247.295 45.472C246.506 46.368 245.514 47.0613 244.319 47.552C243.124 48.0213 241.748 48.256 240.191 48.256ZM264.53 48L258.77 39.84L262.834 37.44L270.418 48H264.53ZM252.338 48V30.784H257.33V48H252.338ZM255.858 41.472V37.472H261.874V41.472H255.858ZM263.314 39.968L258.642 39.456L264.69 30.784H270.002L263.314 39.968ZM282.86 48V44.64L282.54 43.904V37.888C282.54 36.8213 282.21 35.9893 281.548 35.392C280.908 34.7947 279.916 34.496 278.572 34.496C277.655 34.496 276.748 34.6453 275.852 34.944C274.978 35.2213 274.231 35.6053 273.612 36.096L271.82 32.608C272.759 31.9467 273.89 31.4347 275.212 31.072C276.535 30.7093 277.879 30.528 279.244 30.528C281.868 30.528 283.906 31.1467 285.356 32.384C286.807 33.6213 287.532 35.552 287.532 38.176V48H282.86ZM277.612 48.256C276.268 48.256 275.116 48.032 274.156 47.584C273.196 47.1147 272.46 46.4853 271.948 45.696C271.436 44.9067 271.18 44.0213 271.18 43.04C271.18 42.016 271.426 41.12 271.916 40.352C272.428 39.584 273.228 38.9867 274.316 38.56C275.404 38.112 276.823 37.888 278.572 37.888H283.148V40.8H279.116C277.943 40.8 277.132 40.992 276.684 41.376C276.258 41.76 276.044 42.24 276.044 42.816C276.044 43.456 276.29 43.968 276.78 44.352C277.292 44.7147 277.986 44.896 278.86 44.896C279.692 44.896 280.439 44.704 281.1 44.32C281.762 43.9147 282.242 43.328 282.54 42.56L283.308 44.864C282.946 45.9733 282.284 46.816 281.324 47.392C280.364 47.968 279.127 48.256 277.612 48.256Z" fill="#505050"/>
</svg>
